<svg width="42" height="42" viewBox="0 0 42 42" fill="none" xmlns="http://www.w3.org/2000/svg">
<path d="M21 0C23.7614 0 26 2.23858 26 5C26 5.80348 25.8085 6.56169 25.4717 7.23438L31.0273 19C33.7762 19.0147 36 21.2477 36 24C36 25.1964 35.5788 26.2937 34.8779 27.1543L37.168 32.0039C39.8516 32.0925 42 34.2948 42 37C42 39.7614 39.7614 42 37 42C34.2386 42 32 39.7614 32 37C32 36.0318 32.2755 35.128 32.752 34.3623L30.1885 28.9326C28.493 28.6558 27.0846 27.5277 26.417 26H15.583C14.9153 27.5279 13.5065 28.6561 11.8105 28.9326L9.24707 34.3623C9.72369 35.1281 10 36.0316 10 37C10 39.7614 7.76142 42 5 42C2.23858 42 0 39.7614 0 37C0 34.2951 2.14786 32.093 4.83105 32.0039L7.12109 27.1543C6.42049 26.2938 6 25.1961 6 24C6 21.248 8.22329 19.0152 10.9717 19L16.5273 7.23438C16.1907 6.56178 16 5.80333 16 5C16 2.23858 18.2386 0 21 0ZM21 10C20.9178 10 20.8361 9.99709 20.7549 9.99316L15.3242 21.4922C15.4194 21.656 15.5066 21.8251 15.583 22H26.417C26.4934 21.8252 26.5797 21.6559 26.6748 21.4922L21.2441 9.99316C21.1632 9.99705 21.0819 10 21 10Z" fill="#3758F9"/>
<path d="M23 5C23 6.10457 22.1046 7 21 7C19.8954 7 19 6.10457 19 5C19 3.89543 19.8954 3 21 3C22.1046 3 23 3.89543 23 5Z" fill="white"/>
<path d="M13 24C13 25.1046 12.1046 26 11 26C9.89543 26 9 25.1046 9 24C9 22.8954 9.89543 22 11 22C12.1046 22 13 22.8954 13 24Z" fill="white"/>
<path d="M33 24C33 25.1046 32.1046 26 31 26C29.8954 26 29 25.1046 29 24C29 22.8954 29.8954 22 31 22C32.1046 22 33 22.8954 33 24Z" fill="white"/>
<path d="M39 37C39 38.1046 38.1046 39 37 39C35.8954 39 35 38.1046 35 37C35 35.8954 35.8954 35 37 35C38.1046 35 39 35.8954 39 37Z" fill="white"/>
<path d="M7 37C7 38.1046 6.10457 39 5 39C3.89543 39 3 38.1046 3 37C3 35.8954 3.89543 35 5 35C6.10457 35 7 35.8954 7 37Z" fill="white"/>
</svg>
