<svg width="32" height="32" viewBox="0 0 32 32" fill="none" xmlns="http://www.w3.org/2000/svg">
<path d="M9.36597 25.7561H22.6343C22.0989 27.4592 20.5202 28.6179 18.7349 28.6179H13.2653C11.4801 28.6179 9.90131 27.4592 9.36597 25.7561Z" fill="#2563EB"/>
<path d="M20.0325 0C22.6839 0 24.9138 1.68834 25.564 3.97942C28.9166 4.47721 31.4796 7.19578 31.4796 10.4751C31.4796 11.9834 30.9369 13.3726 30.0251 14.4822C30.457 15.3353 30.6991 16.2891 30.6991 17.296C30.6991 20.6205 28.065 23.3684 24.6445 23.8107C24.364 24.3416 24.065 24.9756 22.8942 25.2358H9.10563C7.9349 24.9756 7.63568 24.3417 7.35512 23.8107C3.93474 23.3683 1.30075 20.6204 1.30075 17.296C1.30077 16.2892 1.54265 15.3353 1.97453 14.4822C1.06278 13.3727 0.520266 11.9833 0.520264 10.4751C0.520264 7.19586 3.08315 4.47731 6.43566 3.97942C7.08583 1.68831 9.31593 0 11.9674 0C13.5405 0 14.9653 0.594308 15.9999 1.55615C17.0345 0.594308 18.4594 0 20.0325 0Z" fill="#2563EB"/>
<path d="M12.2275 29.1382H20.0324C19.7258 30.7966 18.2795 32 16.593 32H15.667C13.9805 32 12.5342 30.7966 12.2275 29.1382Z" fill="#2563EB"/>
<path d="M13.0509 19.5122H9.17065L13.5424 6.26758H18.4574L22.8292 19.5122H18.9489L16.0517 9.91503H15.9482L13.0509 19.5122ZM12.3266 14.2868H19.6215V16.9771H12.3266V14.2868Z" fill="white"/>
</svg>
